<?xml version="1.0" standalone="no"?><!DOCTYPE svg PUBLIC "-//W3C//DTD SVG 1.1//EN" "http://www.w3.org/Graphics/SVG/1.1/DTD/svg11.dtd"><svg t="1662650813884" class="icon" viewBox="0 0 1024 1024" version="1.1" xmlns="http://www.w3.org/2000/svg" p-id="989" width="16" height="16" xmlns:xlink="http://www.w3.org/1999/xlink"><path d="M26.504968 514.219878c0-47.803557-0.933663-95.607115 0.233416-143.363989a1315.811587 1315.811587 0 0 1 11.297325-154.988096C56.428874 87.675832 168.421779 12.32921 270.004338 1.125251c43.228607-4.668316 83.376126 5.742029 122.823397 21.007423 58.120536 22.454601 112.366369 52.798656 166.518837 83.282759 80.948602 45.516082 161.943887 90.892115 241.351944 138.975772 44.722469 27.076234 88.698007 55.459596 126.464684 91.919145 41.127865 39.540638 62.275337 88.698007 68.624248 144.997899 6.535643 58.167219-3.781336 113.019934-33.985342 163.391065-20.587274 34.312124-50.744596 59.614397-82.629195 82.862611-67.457168 49.204052-140.843098 88.698007-212.968583 130.339387-63.862565 36.833014-127.818496 73.572662-193.314971 107.371271a715.372765 715.372765 0 0 1-110.965875 47.290042c-57.00014 18.15975-112.693152 13.631483-166.985668-9.336632-60.68811-25.862471-108.725083-66.383455-137.015078-127.351664-16.292423-35.105737-21.84772-73.059148-25.489007-111.19929C24.404226 681.485645 26.551651 597.782737 26.504968 514.219878z m80.388404-4.154802v114.700528c0.326782 51.351478 2.474208 102.702955 7.936137 154.054432 6.535643 61.388357 34.078708 108.6784 88.231175 139.209188 45.562766 25.675739 93.366323 33.705243 143.690771 15.405443a631.483124 631.483124 0 0 0 59.380981-24.461977c77.82083-37.579945 152.140423-81.648849 227.160264-124.410625 61.621773-35.152421 123.710378-69.651277 182.344428-109.892162 23.341581-16.012324 46.169647-32.678213 64.842911-54.525932 32.024649-37.346529 40.007469-81.322067 35.899351-128.332011a152.327156 152.327156 0 0 0-52.56524-105.410578 693.525046 693.525046 0 0 0-92.339293-66.00999c-65.26306-40.474301-132.393446-78.054246-199.103683-115.820924-62.882218-35.712618-125.297605-72.49895-191.914476-101.115727-35.199104-15.125344-71.051772-28.009897-110.872509-21.474255-63.302367 10.363662-137.995425 57.093506-151.533542 141.076514a1043.928855 1043.928855 0 0 0-11.157275 142.617058c-1.073713 48.130339 0 96.073946 0 144.391018z" p-id="990" fill="#d4237a"></path></svg>